<mxfile host="Electron" modified="2023-06-06T13:50:14.020Z" agent="Mozilla/5.0 (Windows NT 10.0; Win64; x64) AppleWebKit/537.36 (KHTML, like Gecko) draw.io/21.2.8 Chrome/112.0.5615.165 Electron/24.2.0 Safari/537.36" etag="RU9WvSYTk0kbsnggXT6F" version="21.2.8" type="device">
  <diagram name="Page-1" id="BUFMsCNeDG22JVDRCRzr">
    <mxGraphModel dx="520" dy="376" grid="1" gridSize="10" guides="1" tooltips="1" connect="1" arrows="1" fold="1" page="1" pageScale="1" pageWidth="850" pageHeight="1100" math="0" shadow="0">
      <root>
        <mxCell id="0" />
        <mxCell id="1" parent="0" />
        <mxCell id="YyjsLp1BgS4xAbx6sLr2-6" style="edgeStyle=none;rounded=0;orthogonalLoop=1;jettySize=auto;html=1;" edge="1" parent="1" source="YyjsLp1BgS4xAbx6sLr2-1" target="YyjsLp1BgS4xAbx6sLr2-4">
          <mxGeometry relative="1" as="geometry" />
        </mxCell>
        <mxCell id="YyjsLp1BgS4xAbx6sLr2-12" value="7" style="edgeLabel;html=1;align=center;verticalAlign=middle;resizable=0;points=[];" vertex="1" connectable="0" parent="YyjsLp1BgS4xAbx6sLr2-6">
          <mxGeometry x="-0.225" relative="1" as="geometry">
            <mxPoint as="offset" />
          </mxGeometry>
        </mxCell>
        <mxCell id="YyjsLp1BgS4xAbx6sLr2-1" value="1" style="text;html=1;align=center;verticalAlign=middle;resizable=0;points=[];autosize=1;strokeColor=none;fillColor=none;fontColor=#2FF029;" vertex="1" parent="1">
          <mxGeometry x="175" y="238" width="30" height="30" as="geometry" />
        </mxCell>
        <mxCell id="YyjsLp1BgS4xAbx6sLr2-7" style="edgeStyle=none;rounded=0;orthogonalLoop=1;jettySize=auto;html=1;" edge="1" parent="1" source="YyjsLp1BgS4xAbx6sLr2-2" target="YyjsLp1BgS4xAbx6sLr2-4">
          <mxGeometry relative="1" as="geometry" />
        </mxCell>
        <mxCell id="YyjsLp1BgS4xAbx6sLr2-13" value="3" style="edgeLabel;html=1;align=center;verticalAlign=middle;resizable=0;points=[];" vertex="1" connectable="0" parent="YyjsLp1BgS4xAbx6sLr2-7">
          <mxGeometry x="-0.2985" relative="1" as="geometry">
            <mxPoint as="offset" />
          </mxGeometry>
        </mxCell>
        <mxCell id="YyjsLp1BgS4xAbx6sLr2-2" value="0" style="text;html=1;align=center;verticalAlign=middle;resizable=0;points=[];autosize=1;strokeColor=none;fillColor=none;fontColor=#2FF029;" vertex="1" parent="1">
          <mxGeometry x="175" y="278" width="30" height="30" as="geometry" />
        </mxCell>
        <mxCell id="YyjsLp1BgS4xAbx6sLr2-8" style="edgeStyle=none;rounded=0;orthogonalLoop=1;jettySize=auto;html=1;" edge="1" parent="1" source="YyjsLp1BgS4xAbx6sLr2-3" target="YyjsLp1BgS4xAbx6sLr2-4">
          <mxGeometry relative="1" as="geometry" />
        </mxCell>
        <mxCell id="YyjsLp1BgS4xAbx6sLr2-3" value="-2" style="text;html=1;align=center;verticalAlign=middle;resizable=0;points=[];autosize=1;strokeColor=none;fillColor=none;fontColor=#A3761A;" vertex="1" parent="1">
          <mxGeometry x="175" y="318" width="30" height="30" as="geometry" />
        </mxCell>
        <mxCell id="YyjsLp1BgS4xAbx6sLr2-16" style="edgeStyle=none;rounded=0;orthogonalLoop=1;jettySize=auto;html=1;endArrow=none;endFill=0;dashed=1;dashPattern=1 4;" edge="1" parent="1" source="YyjsLp1BgS4xAbx6sLr2-4" target="YyjsLp1BgS4xAbx6sLr2-15">
          <mxGeometry relative="1" as="geometry" />
        </mxCell>
        <mxCell id="YyjsLp1BgS4xAbx6sLr2-4" value="5" style="text;html=1;align=center;verticalAlign=middle;resizable=0;points=[];autosize=1;strokeColor=none;fillColor=none;fontColor=#F00202;" vertex="1" parent="1">
          <mxGeometry x="265" y="278" width="30" height="30" as="geometry" />
        </mxCell>
        <mxCell id="YyjsLp1BgS4xAbx6sLr2-9" value="Sigmoid(5) = 1" style="ellipse;whiteSpace=wrap;html=1;aspect=fixed;" vertex="1" parent="1">
          <mxGeometry x="290" y="253" width="80" height="80" as="geometry" />
        </mxCell>
        <mxCell id="YyjsLp1BgS4xAbx6sLr2-11" style="edgeStyle=none;rounded=0;orthogonalLoop=1;jettySize=auto;html=1;" edge="1" parent="1" source="YyjsLp1BgS4xAbx6sLr2-10">
          <mxGeometry relative="1" as="geometry">
            <mxPoint x="450" y="293" as="targetPoint" />
          </mxGeometry>
        </mxCell>
        <mxCell id="YyjsLp1BgS4xAbx6sLr2-10" value="1" style="text;html=1;align=center;verticalAlign=middle;resizable=0;points=[];autosize=1;strokeColor=none;fillColor=none;fontColor=#2FF029;" vertex="1" parent="1">
          <mxGeometry x="370" y="278" width="30" height="30" as="geometry" />
        </mxCell>
        <mxCell id="YyjsLp1BgS4xAbx6sLr2-15" value="sum of the 3 synapses" style="text;html=1;align=center;verticalAlign=middle;resizable=0;points=[];autosize=1;strokeColor=none;fillColor=none;" vertex="1" parent="1">
          <mxGeometry x="210" y="190" width="140" height="30" as="geometry" />
        </mxCell>
        <mxCell id="YyjsLp1BgS4xAbx6sLr2-17" value="bias value" style="text;html=1;align=center;verticalAlign=middle;resizable=0;points=[];autosize=1;strokeColor=none;fillColor=none;" vertex="1" parent="1">
          <mxGeometry x="80" y="318" width="80" height="30" as="geometry" />
        </mxCell>
        <mxCell id="YyjsLp1BgS4xAbx6sLr2-18" style="edgeStyle=none;rounded=0;orthogonalLoop=1;jettySize=auto;html=1;endArrow=none;endFill=0;dashed=1;dashPattern=1 4;" edge="1" parent="1" source="YyjsLp1BgS4xAbx6sLr2-17" target="YyjsLp1BgS4xAbx6sLr2-3">
          <mxGeometry relative="1" as="geometry">
            <mxPoint x="290" y="408" as="sourcePoint" />
            <mxPoint x="290" y="350" as="targetPoint" />
          </mxGeometry>
        </mxCell>
        <mxCell id="YyjsLp1BgS4xAbx6sLr2-19" style="edgeStyle=none;rounded=0;orthogonalLoop=1;jettySize=auto;html=1;endArrow=none;endFill=0;dashed=1;dashPattern=1 4;" edge="1" parent="1" source="YyjsLp1BgS4xAbx6sLr2-20">
          <mxGeometry relative="1" as="geometry">
            <mxPoint x="170" y="190" as="sourcePoint" />
            <mxPoint x="230" y="260" as="targetPoint" />
          </mxGeometry>
        </mxCell>
        <mxCell id="YyjsLp1BgS4xAbx6sLr2-20" value="weights" style="text;html=1;align=center;verticalAlign=middle;resizable=0;points=[];autosize=1;strokeColor=none;fillColor=none;" vertex="1" parent="1">
          <mxGeometry x="200" y="220" width="60" height="30" as="geometry" />
        </mxCell>
        <mxCell id="YyjsLp1BgS4xAbx6sLr2-21" value="1*7+0*3-2=5" style="text;html=1;align=center;verticalAlign=middle;resizable=0;points=[];autosize=1;strokeColor=none;fillColor=none;" vertex="1" parent="1">
          <mxGeometry x="265" y="348" width="90" height="30" as="geometry" />
        </mxCell>
      </root>
    </mxGraphModel>
  </diagram>
</mxfile>
